<svg version="1.1" xmlns="http://www.w3.org/2000/svg" xmlns:xlink="http://www.w3.org/1999/xlink" width="368.30284" height="109.67246" viewBox="0,0,368.30284,109.67246"><defs><radialGradient cx="25.85435" cy="66.66667" r="33.03304" gradientUnits="userSpaceOnUse" id="color-1"><stop offset="0" stop-color="#7f3fff"/><stop offset="1" stop-color="#3fe5ff"/></radialGradient><radialGradient cx="21.52102" cy="58.66667" r="33.03304" gradientUnits="userSpaceOnUse" id="color-2"><stop offset="0" stop-color="#ff1b4b"/><stop offset="1" stop-color="#ffb640"/></radialGradient><radialGradient cx="72.85435" cy="106.66667" r="33.78378" gradientUnits="userSpaceOnUse" id="color-3"><stop offset="0" stop-color="#7f3fff"/><stop offset="1" stop-color="#3fe5ff"/></radialGradient><radialGradient cx="65.85435" cy="64" r="33.78378" gradientUnits="userSpaceOnUse" id="color-4"><stop offset="0" stop-color="#ff1b4b"/><stop offset="1" stop-color="#ffb640"/></radialGradient><radialGradient cx="70.52102" cy="97.33333" r="6.75676" gradientUnits="userSpaceOnUse" id="color-5"><stop offset="0" stop-color="#ff1b4b"/><stop offset="1" stop-color="#ffb640"/></radialGradient><radialGradient cx="105.85435" cy="80.66667" r="43.54354" gradientUnits="userSpaceOnUse" id="color-6"><stop offset="0" stop-color="#7f3fff"/><stop offset="1" stop-color="#3fe5ff"/></radialGradient><radialGradient cx="97.18769" cy="59.66667" r="43.54354" gradientUnits="userSpaceOnUse" id="color-7"><stop offset="0" stop-color="#ff1b4b"/><stop offset="1" stop-color="#ffb640"/></radialGradient><radialGradient cx="159.52102" cy="69.33333" r="48.7988" gradientUnits="userSpaceOnUse" id="color-8"><stop offset="0" stop-color="#7f3fff"/><stop offset="1" stop-color="#3fe5ff"/></radialGradient><radialGradient cx="151.18769" cy="34" r="48.7988" gradientUnits="userSpaceOnUse" id="color-9"><stop offset="0" stop-color="#ff1b4b"/><stop offset="1" stop-color="#ffb640"/></radialGradient><radialGradient cx="245.85435" cy="105.66667" r="43.54354" gradientUnits="userSpaceOnUse" id="color-10"><stop offset="0" stop-color="#7f3fff"/><stop offset="1" stop-color="#3fe5ff"/></radialGradient><radialGradient cx="254.52102" cy="100.66667" r="43.54354" gradientUnits="userSpaceOnUse" id="color-11"><stop offset="0" stop-color="#ff1b4b"/><stop offset="1" stop-color="#ffb640"/></radialGradient><radialGradient cx="235.85435" cy="95.66667" r="13.51351" gradientUnits="userSpaceOnUse" id="color-12"><stop offset="0" stop-color="#ff1b4b"/><stop offset="1" stop-color="#ffb640"/></radialGradient><radialGradient cx="277.85435" cy="105.33333" r="39.78979" gradientUnits="userSpaceOnUse" id="color-13"><stop offset="0" stop-color="#7f3fff"/><stop offset="1" stop-color="#3fe5ff"/></radialGradient><radialGradient cx="262.85435" cy="74.66667" r="39.78979" gradientUnits="userSpaceOnUse" id="color-14"><stop offset="0" stop-color="#ff1b4b"/><stop offset="1" stop-color="#ffb640"/></radialGradient><radialGradient cx="300.18769" cy="94.66667" r="33.78379" gradientUnits="userSpaceOnUse" id="color-15"><stop offset="0" stop-color="#7f3fff"/><stop offset="1" stop-color="#3fe5ff"/></radialGradient><radialGradient cx="308.85435" cy="55.66667" r="33.78379" gradientUnits="userSpaceOnUse" id="color-16"><stop offset="0" stop-color="#ff1b4b"/><stop offset="1" stop-color="#ffb640"/></radialGradient><radialGradient cx="347.18769" cy="93" r="37.53754" gradientUnits="userSpaceOnUse" id="color-17"><stop offset="0" stop-color="#7f3fff"/><stop offset="1" stop-color="#3fe5ff"/></radialGradient><radialGradient cx="342.18769" cy="63.66667" r="37.53754" gradientUnits="userSpaceOnUse" id="color-18"><stop offset="0" stop-color="#ff1b4b"/><stop offset="1" stop-color="#ffb640"/></radialGradient><radialGradient cx="348.18769" cy="74" r="2.33333" gradientUnits="userSpaceOnUse" id="color-19"><stop offset="0" stop-color="#ff1b4b"/><stop offset="1" stop-color="#ffb640"/></radialGradient></defs><g transform="translate(-8.66449,-25.57982)"><g data-paper-data="{&quot;isPaintingLayer&quot;:true}" fill-rule="nonzero" stroke-width="4.5" stroke-linecap="round" stroke-linejoin="miter" stroke-miterlimit="10" stroke-dasharray="" stroke-dashoffset="0" style="mix-blend-mode: normal"><path d="M11.02102,58.37838l28.52853,-1.50151l9.00901,19.51952l-24.02402,-1.5015v19.51952l16.51651,15.01501l1.50151,-9.00901l-7.50751,-7.5075h22.52253v30.03003l-43.54354,-3.003z" fill="url(#color-1)" stroke="url(#color-2)"/><path d="M99.60961,124.44445l-34.53454,-64.56456v52.55255l1.5015,15.01502l9.00901,-1.5015l3.00301,-21.02102z" fill="url(#color-3)" stroke="url(#color-4)"/><path d="M71.08108,86.90691v13.51351" fill="none" stroke="url(#color-5)"/><path d="M92.1021,98.91892l6.00601,-42.04204l28.52853,45.04505l7.50751,-58.55855l16.51651,87.08708h-12.01201v-16.51651l-15.01502,15.01501l-19.51952,-36.03603z" fill="url(#color-6)" stroke="url(#color-7)"/><path d="M144.65466,35.85586l18.01802,90.09009l21.02102,-1.5015v-15.01502h-12.01201l-6.006,-25.52552l13.51351,1.5015v-18.01802h-13.51351l-7.50751,-24.02402h16.51651l-6.006,-15.01502z" fill="url(#color-8)" stroke="url(#color-9)"/><path d="M231.74174,40.36036l-18.01801,87.08709l43.54354,-4.5045l-6.00601,-48.04805z" fill="url(#color-10)" stroke="url(#color-11)"/><path d="M236.24625,73.3934v27.02702" fill="none" stroke="url(#color-12)"/><path d="M285.7958,125.94595l-4.5045,-79.57958l-3.003,46.54655l-22.52253,-30.03003l15.01502,48.04805z" fill="url(#color-13)" stroke="url(#color-14)"/><path d="M294.80481,50.87087v67.56757l15.01502,-3.00301l6.00601,-10.51051h-12.01201v-25.52552h18.01802l-1.5015,-12.01202h-12.01201v-12.01201l18.01801,-3.00301z" fill="url(#color-15)" stroke="url(#color-16)"/><path d="M338.34835,113.93394l1.5015,-66.06607l22.52252,24.02402l-9.00901,16.51652l16.51652,34.53453l-19.51952,-18.01802z" fill="url(#color-17)" stroke="url(#color-18)"/><path d="M346.76051,71l3.33333,4.66667" fill="none" stroke="url(#color-19)"/></g></g></svg>